<svg width="128" height="142" viewBox="0 0 128 142" fill="none" xmlns="http://www.w3.org/2000/svg">
<path opacity="0.2" d="M90.8677 121C112.223 110.916 127 89.1836 127 64C127 29.2061 98.7939 1 64 1C29.2061 1 1 29.2061 1 64C1 88.736 15.2559 110.142 36 120.451" stroke="white"/>
<path opacity="0.5" d="M49.1907 122.02C48.9441 121.733 48.6507 121.51 48.3107 121.35C47.9774 121.19 47.6374 121.11 47.2907 121.11C46.8574 121.11 46.4607 121.213 46.1007 121.42C45.7407 121.627 45.4574 121.913 45.2507 122.28C45.0441 122.64 44.9407 123.037 44.9407 123.47C44.9407 123.903 45.0441 124.303 45.2507 124.67C45.4574 125.03 45.7407 125.317 46.1007 125.53C46.4607 125.737 46.8574 125.84 47.2907 125.84C47.6241 125.84 47.9574 125.767 48.2907 125.62C48.6307 125.473 48.9307 125.27 49.1907 125.01L49.9807 125.89C49.6141 126.263 49.1874 126.56 48.7007 126.78C48.2141 126.993 47.7207 127.1 47.2207 127.1C46.5474 127.1 45.9307 126.94 45.3707 126.62C44.8107 126.3 44.3707 125.867 44.0507 125.32C43.7307 124.767 43.5707 124.157 43.5707 123.49C43.5707 122.823 43.7341 122.217 44.0607 121.67C44.3874 121.123 44.8307 120.693 45.3907 120.38C45.9574 120.067 46.5841 119.91 47.2707 119.91C47.7707 119.91 48.2607 120.01 48.7407 120.21C49.2207 120.41 49.6307 120.687 49.9707 121.04L49.1907 122.02ZM55.3036 120H61.0136V121.19H58.8336V127H57.4836V121.19H55.3036V120ZM71.3425 127L70.1325 124.93C70.0792 124.937 69.9959 124.94 69.8825 124.94H68.3025V127H66.9625V120H69.8825C70.7892 120 71.4892 120.21 71.9825 120.63C72.4759 121.05 72.7225 121.643 72.7225 122.41C72.7225 122.957 72.6025 123.423 72.3625 123.81C72.1292 124.197 71.7859 124.487 71.3325 124.68L72.8725 127H71.3425ZM68.3025 123.76H69.8825C70.3892 123.76 70.7759 123.65 71.0425 123.43C71.3092 123.21 71.4425 122.883 71.4425 122.45C71.4425 122.023 71.3092 121.703 71.0425 121.49C70.7759 121.277 70.3892 121.17 69.8825 121.17H68.3025V123.76ZM79.1891 120H80.5291V125.79H83.5491V127H79.1891V120Z" fill="white"/>
</svg>
