<svg width="8" height="17" viewBox="0 0 8 17" fill="none" xmlns="http://www.w3.org/2000/svg">
<path d="M1.64757 3.13874C1.64757 3.54519 1.64757 5.36672 1.64757 5.36672H0V8.09147H1.64757V16.1905H5.03001V8.09147H7.30016C7.30016 8.09147 7.51275 6.78555 7.61525 5.35543C7.31915 5.35543 5.0414 5.35543 5.0414 5.35543C5.0414 5.35543 5.0414 3.771 5.0414 3.49251C5.0414 3.21401 5.40964 2.83766 5.77408 2.83766C6.13852 2.83766 6.90535 2.83766 7.61905 2.83766C7.61905 2.46508 7.61905 1.1855 7.61905 0C6.66999 0 5.58806 0 5.11353 0C1.56405 0.00376348 1.64757 2.73228 1.64757 3.13874Z" fill="white"/>
</svg>
