<svg width="18" height="18" viewBox="0 0 18 18" fill="none" xmlns="http://www.w3.org/2000/svg">
<path d="M12.024 0H5.59542C2.6356 0 0.238281 2.39732 0.238281 5.35714V11.7857C0.238281 14.7455 2.6356 17.1429 5.59542 17.1429H12.024C14.9838 17.1429 17.3811 14.7455 17.3811 11.7857V5.35714C17.3811 2.39732 14.9838 0 12.024 0ZM15.774 11.7857C15.774 13.8549 14.0932 15.5357 12.024 15.5357H5.59542C3.52623 15.5357 1.84542 13.8549 1.84542 11.7857V5.35714C1.84542 3.28795 3.52623 1.60714 5.59542 1.60714H12.024C14.0932 1.60714 15.774 3.28795 15.774 5.35714V11.7857Z" fill="white"/>
<path d="M8.80971 4.28571C6.44252 4.28571 4.524 6.20424 4.524 8.57143C4.524 10.9386 6.44252 12.8571 8.80971 12.8571C11.1769 12.8571 13.0954 10.9386 13.0954 8.57143C13.0954 6.20424 11.1769 4.28571 8.80971 4.28571ZM8.80971 11.25C7.33315 11.25 6.13114 10.048 6.13114 8.57143C6.13114 7.09487 7.33315 5.89286 8.80971 5.89286C10.2863 5.89286 11.4883 7.09487 11.4883 8.57143C11.4883 10.048 10.2863 11.25 8.80971 11.25Z" fill="white"/>
<path d="M13.4169 4.5368C13.7331 4.5368 13.9894 4.28046 13.9894 3.96425C13.9894 3.64805 13.7331 3.39171 13.4169 3.39171C13.1006 3.39171 12.8443 3.64805 12.8443 3.96425C12.8443 4.28046 13.1006 4.5368 13.4169 4.5368Z" fill="white"/>
</svg>
