<svg width="346" height="109" viewBox="0 0 346 109" fill="none" xmlns="http://www.w3.org/2000/svg">
    <g clip-path="url(#clip0_525_517)">
        <path d="M344.482 26.9677C344.968 26.9677 345.209 27.1903 345.209 27.6328V28.0082C345.209 28.2174 345.155 28.3703 345.048 28.4668C344.941 28.5634 344.756 28.609 344.493 28.609H340.148V27.6301C340.148 27.1876 340.39 26.965 340.875 26.965H344.482V26.9677ZM339.403 27.6328V30.1376C339.403 30.5318 339.537 30.8455 339.805 31.0789C340.073 31.3122 340.43 31.4302 340.872 31.4302H345.692L345.863 31.2424V30.8026H340.875C340.39 30.8026 340.148 30.58 340.148 30.1376V29.2124H344.482C344.938 29.2124 345.295 29.1078 345.56 28.904C345.823 28.6975 345.954 28.3998 345.954 28.0109V27.6355C345.954 27.2466 345.82 26.9329 345.552 26.6969C345.284 26.4609 344.927 26.3429 344.485 26.3429H340.878C340.435 26.3429 340.079 26.4609 339.811 26.6969C339.537 26.9302 339.403 27.2439 339.403 27.6328ZM332.733 27.6113C332.733 27.1689 332.956 26.9463 333.398 26.9463H337.231C337.459 26.9463 337.636 27.0026 337.764 27.1125C337.893 27.2225 337.957 27.3727 337.957 27.5577V29.7031C337.957 29.9123 337.896 30.0759 337.772 30.1912C337.649 30.3092 337.469 30.3655 337.231 30.3655H333.398C332.956 30.3655 332.733 30.1429 332.733 29.7004V27.6113ZM338.091 26.3187L337.984 26.9463C337.732 26.5279 337.308 26.3187 336.71 26.3187H333.398C332.956 26.3187 332.61 26.4367 332.363 26.67C332.114 26.9034 331.991 27.2171 331.991 27.6113V29.7031C331.991 30.0973 332.114 30.4111 332.363 30.6444C332.61 30.8777 332.956 30.993 333.398 30.993H336.71C337.284 30.993 337.7 30.7973 337.957 30.4111V31.5508C337.957 31.76 337.898 31.9236 337.778 32.0389C337.657 32.1542 337.477 32.2132 337.239 32.2132H332.232V32.653L332.393 32.8408H337.231C337.673 32.8408 338.03 32.7228 338.298 32.4895C338.566 32.2561 338.7 31.9424 338.7 31.5482V26.3187H338.091ZM239.518 97.6668C239.518 96.7389 239.982 96.275 240.91 96.275H248.947C249.425 96.275 249.797 96.3903 250.068 96.6236C250.339 96.8569 250.473 97.1653 250.473 97.5542V102.051C250.473 102.491 250.344 102.832 250.087 103.076C249.83 103.32 249.451 103.443 248.947 103.443H240.913C239.985 103.443 239.521 102.979 239.521 102.051V97.6668H239.518ZM250.752 94.9556L250.527 96.2723C250.001 95.3954 249.108 94.9556 247.853 94.9556H240.91C239.982 94.9556 239.258 95.1996 238.738 95.6904C238.218 96.1784 237.957 96.8382 237.957 97.6668V102.051C237.957 102.88 238.218 103.537 238.738 104.028C239.258 104.516 239.982 104.763 240.91 104.763H247.853C249.057 104.763 249.929 104.355 250.468 103.54V105.929C250.468 106.369 250.342 106.71 250.092 106.954C249.84 107.198 249.465 107.321 248.963 107.321H238.462V108.244L238.8 108.638H248.947C249.875 108.638 250.623 108.394 251.187 107.903C251.75 107.415 252.034 106.755 252.034 105.927V94.9556H250.752ZM224.895 96.2723H232.929C233.857 96.2723 234.321 96.7363 234.321 97.6641V105.624H235.882V97.6641C235.882 96.8355 235.624 96.1784 235.109 95.6877C234.595 95.1996 233.868 94.9529 232.926 94.9529H226.002C224.71 94.9529 223.814 95.3927 223.312 96.2696L223.106 94.9529H221.808V105.624H223.371V97.5515C223.371 97.1627 223.505 96.8516 223.776 96.6209C224.047 96.3903 224.42 96.2723 224.895 96.2723ZM219.174 90.9463H217.611V93.789H219.174V90.9463ZM219.174 94.9556H217.611V105.626H219.174V94.9556ZM214.977 90.9463H213.414V105.626H214.977V90.9463ZM210.781 90.9463H209.22V93.789H210.781V90.9463ZM210.781 94.9556H209.22V105.626H210.781V94.9556ZM196.272 104.31C195.269 104.31 194.765 103.846 194.765 102.918V101.976C194.765 101.049 195.267 100.585 196.272 100.585H205.211V102.918C205.211 103.357 205.082 103.698 204.824 103.942C204.567 104.186 204.186 104.31 203.685 104.31H196.272ZM193.204 101.976V102.918C193.204 103.746 193.481 104.403 194.033 104.894C194.585 105.382 195.331 105.629 196.272 105.629H202.596C203.902 105.629 204.811 105.16 205.326 104.218L205.589 105.629H206.774V97.6695C206.774 96.8408 206.514 96.1838 205.994 95.693C205.473 95.205 204.749 94.9582 203.821 94.9582H194.239L193.902 95.3712V96.275H203.837C204.752 96.275 205.211 96.7389 205.211 97.6668V99.3429H196.272C195.331 99.3429 194.585 99.5789 194.033 100.048C193.481 100.518 193.204 101.161 193.204 101.976ZM191.625 96.2723V94.9556H183.006V92.4535H181.442V102.918C181.442 103.746 181.702 104.403 182.223 104.894C182.743 105.382 183.467 105.629 184.395 105.629H191.284L191.622 105.235V104.312H184.397C183.47 104.312 183.006 103.848 183.006 102.92V96.2777H191.625V96.2723ZM176.341 96.2723C177.358 96.2723 177.865 96.7363 177.865 97.6641V98.4553C177.865 98.8951 177.752 99.2142 177.527 99.4153C177.302 99.6165 176.913 99.7157 176.36 99.7157H167.25V97.6641C167.25 96.7363 167.757 96.2723 168.776 96.2723H176.341ZM165.69 97.6668V102.918C165.69 103.746 165.971 104.403 166.537 104.894C167.1 105.382 167.848 105.629 168.776 105.629H178.881L179.238 105.235V104.312H168.774C167.757 104.312 167.248 103.848 167.248 102.92V100.981H176.339C177.293 100.981 178.044 100.764 178.597 100.332C179.149 99.9007 179.425 99.2759 179.425 98.4606V97.6695C179.425 96.8542 179.144 96.1972 178.578 95.7038C178.015 95.2076 177.267 94.9609 176.339 94.9609H168.774C167.846 94.9609 167.097 95.2076 166.534 95.7038C165.974 96.1945 165.69 96.8516 165.69 97.6668ZM150.731 97.6668C150.731 96.7389 151.195 96.275 152.123 96.275H160.157C160.634 96.275 161.007 96.3903 161.278 96.6236C161.549 96.8569 161.683 97.1653 161.683 97.5542V102.918C161.683 103.357 161.554 103.698 161.297 103.942C161.039 104.186 160.661 104.31 160.16 104.31H152.125C151.197 104.31 150.733 103.846 150.733 102.918V97.6668H150.731ZM161.683 96.1784C161.131 95.3632 160.259 94.9556 159.068 94.9556H152.125C151.197 94.9556 150.473 95.1996 149.953 95.6904C149.433 96.1784 149.173 96.8382 149.173 97.6668V102.918C149.173 103.746 149.433 104.403 149.953 104.894C150.473 105.382 151.197 105.629 152.125 105.629H159.068C160.323 105.629 161.214 105.189 161.739 104.312L161.965 105.629H163.244V90.949H161.683V96.1784ZM134.659 96.2723C135.675 96.2723 136.182 96.7363 136.182 97.6641V98.4553C136.182 98.8951 136.07 99.2142 135.844 99.4153C135.619 99.6165 135.23 99.7157 134.678 99.7157H125.57V97.6641C125.57 96.7363 126.077 96.2723 127.094 96.2723H134.659ZM124.007 97.6668V102.918C124.007 103.746 124.289 104.403 124.854 104.894C125.42 105.382 126.166 105.629 127.094 105.629H137.199L137.555 105.235V104.312H127.091C126.075 104.312 125.568 103.848 125.568 102.92V100.981H134.656C135.611 100.981 136.362 100.764 136.914 100.332C137.467 99.9007 137.743 99.2759 137.743 98.4606V97.6695C137.743 96.8542 137.461 96.1972 136.896 95.7038C136.33 95.2076 135.584 94.9609 134.656 94.9609H127.091C126.163 94.9609 125.415 95.2076 124.852 95.7038C124.289 96.1945 124.007 96.8516 124.007 97.6668ZM109.046 97.6668C109.046 96.7389 109.509 96.275 110.437 96.275H118.472C118.949 96.275 119.322 96.3903 119.593 96.6236C119.864 96.8569 119.998 97.1653 119.998 97.5542V102.918C119.998 103.357 119.869 103.698 119.612 103.942C119.354 104.186 118.976 104.31 118.472 104.31H110.437C109.509 104.31 109.046 103.846 109.046 102.918V97.6668ZM119.998 96.1784C119.445 95.3632 118.574 94.9556 117.383 94.9556H110.44C109.512 94.9556 108.788 95.1996 108.268 95.6904C107.748 96.1784 107.487 96.8382 107.487 97.6668V102.918C107.487 103.746 107.748 104.403 108.268 104.894C108.788 105.382 109.512 105.629 110.44 105.629H117.383C118.638 105.629 119.528 105.189 120.057 104.312L120.282 105.629H121.561V90.949H120V96.1784H119.998ZM94.2556 102.915C94.2556 103.843 93.7917 104.307 92.8638 104.307H84.8266C83.8102 104.307 83.3033 103.843 83.3033 102.915V97.6641C83.3033 96.7363 83.8129 96.2723 84.8266 96.2723H92.8638C93.7917 96.2723 94.2556 96.7363 94.2556 97.6641V102.915ZM95.8164 97.6668C95.8164 96.8382 95.5536 96.1811 95.0253 95.6904C94.4997 95.2023 93.7702 94.9556 92.8423 94.9556H84.8239C83.8826 94.9556 83.1344 95.2023 82.5739 95.6984C82.0161 96.1945 81.7372 96.8489 81.7372 97.6641V102.915C81.7372 103.744 82.0134 104.401 82.5659 104.891C83.1183 105.38 83.8692 105.626 84.8239 105.626H92.8423C93.7702 105.626 94.4997 105.382 95.0253 104.891C95.5509 104.403 95.8164 103.744 95.8164 102.915V97.6668ZM80.1389 94.9556H72.63C71.3374 94.9556 70.439 95.3954 69.9375 96.2723L69.731 94.9556H68.433V105.626H69.9938V97.5542C69.9938 97.1653 70.1279 96.8542 70.3987 96.6236C70.6696 96.3903 71.0424 96.275 71.517 96.275H80.1362V94.9556H80.1389ZM66.4217 96.2723V94.9556H57.8025V92.4535H56.2391V102.918C56.2391 103.746 56.4992 104.403 57.0195 104.894C57.5397 105.385 58.2638 105.629 59.1917 105.629H66.0811L66.419 105.235V104.312H59.1917C58.2638 104.312 57.7999 103.848 57.7999 102.92V96.2777H66.4217V96.2723ZM42.9912 96.2723H51.0257C51.9536 96.2723 52.4176 96.7363 52.4176 97.6641V105.624H53.9784V97.6641C53.9784 96.8355 53.7209 96.1784 53.206 95.6877C52.6911 95.1996 51.9644 94.9529 51.0231 94.9529H44.0988C42.8062 94.9529 41.9105 95.3927 41.409 96.2696L41.2025 94.9529H39.9045V105.624H41.468V97.5515C41.468 97.1627 41.6021 96.8516 41.8729 96.6209C42.1411 96.3903 42.5139 96.2723 42.9912 96.2723ZM34.6161 96.2723C35.6325 96.2723 36.1393 96.7363 36.1393 97.6641V98.4553C36.1393 98.8951 36.0267 99.2142 35.8014 99.4153C35.5762 99.6165 35.1873 99.7157 34.6349 99.7157H25.5276V97.6641C25.5276 96.7363 26.0372 96.2723 27.0509 96.2723H34.6161ZM23.9642 97.6668V102.918C23.9642 103.746 24.2457 104.403 24.8116 104.894C25.3748 105.382 26.123 105.629 27.0509 105.629H37.1557L37.5124 105.235V104.312H27.0482C26.0318 104.312 25.5249 103.848 25.5249 102.92V100.981H34.6161C35.5708 100.981 36.3217 100.764 36.8741 100.332C37.4266 99.9007 37.7028 99.2759 37.7028 98.4606V97.6695C37.7028 96.8542 37.4212 96.1972 36.8554 95.7038C36.2922 95.2076 35.544 94.9609 34.6161 94.9609H27.0509C26.123 94.9609 25.3748 95.2076 24.8116 95.7038C24.2457 96.1945 23.9642 96.8516 23.9642 97.6668ZM22.1781 96.2723V95.3686L21.8402 94.9556H12.7303C11.8024 94.9556 11.0542 95.2023 10.491 95.6984C9.92786 96.1945 9.64359 96.8489 9.64359 97.6641V102.915C9.64359 103.744 9.92517 104.401 10.491 104.891C11.0569 105.38 11.8024 105.626 12.7303 105.626H21.8375L22.1781 105.232V104.31H12.7303C11.7139 104.31 11.2071 103.846 11.2071 102.918V97.6668C11.2071 96.7389 11.7139 96.275 12.7303 96.275H22.1781V96.2723ZM326.273 30.8026C325.796 30.8026 325.554 30.58 325.554 30.1376V29.6897C325.554 29.2472 325.793 29.0246 326.273 29.0246H330.534V30.1376C330.534 30.3467 330.473 30.5103 330.352 30.6256C330.229 30.741 330.049 30.8 329.81 30.8H326.273V30.8026ZM324.811 29.6897V30.1376C324.811 30.5318 324.943 30.8455 325.206 31.0789C325.468 31.3122 325.825 31.4302 326.273 31.4302H329.287C329.909 31.4302 330.344 31.2049 330.588 30.757L330.714 31.4302H331.28V27.6355C331.28 27.2413 331.156 26.9275 330.907 26.6942C330.658 26.4609 330.312 26.3429 329.869 26.3429H325.302L325.141 26.5413V26.9731H329.88C330.317 26.9731 330.534 27.1957 330.534 27.6382V28.4373H326.273C325.825 28.4373 325.468 28.55 325.206 28.7725C324.943 28.9951 324.811 29.3008 324.811 29.6897ZM324.165 26.3429H320.585C319.968 26.3429 319.542 26.5521 319.3 26.9704L319.201 26.3429H318.582V31.4302H319.327V27.5818C319.327 27.3968 319.392 27.2493 319.52 27.1367C319.649 27.0267 319.826 26.9704 320.054 26.9704H324.162V26.3429H324.165ZM312.408 30.8026C311.931 30.8026 311.692 30.58 311.692 30.1376V29.6897C311.692 29.2472 311.931 29.0246 312.408 29.0246H316.672V30.1376C316.672 30.3467 316.611 30.5103 316.487 30.6256C316.364 30.741 316.184 30.8 315.946 30.8H312.408V30.8026ZM310.947 29.6897V30.1376C310.947 30.5318 311.078 30.8455 311.341 31.0789C311.604 31.3122 311.96 31.4302 312.408 31.4302H315.425C316.047 31.4302 316.479 31.2049 316.726 30.757L316.852 31.4302H317.418V27.6355C317.418 27.2413 317.294 26.9275 317.045 26.6942C316.796 26.4609 316.45 26.3429 316.007 26.3429H311.44L311.279 26.5413V26.9731H316.018C316.455 26.9731 316.672 27.1957 316.672 27.6382V28.4373H312.408C311.96 28.4373 311.604 28.55 311.341 28.7725C311.078 28.9951 310.947 29.3008 310.947 29.6897ZM305.744 28.6304H309.209V30.0491C309.209 30.3065 309.145 30.4862 309.021 30.5908C308.895 30.6954 308.691 30.7463 308.41 30.7463H303.609C303.333 30.7463 303.135 30.6927 303.011 30.5908C302.888 30.4862 302.829 30.3065 302.829 30.0491V26.5413C302.829 26.2785 302.891 26.0935 303.011 25.9889C303.135 25.8843 303.336 25.8333 303.618 25.8333H309.871V25.3479L309.7 25.1495H303.615C303.111 25.1495 302.725 25.2675 302.448 25.5035C302.172 25.7395 302.035 26.0854 302.035 26.5386V30.0464C302.035 30.4942 302.172 30.8375 302.448 31.0735C302.725 31.3095 303.113 31.4275 303.615 31.4275H308.407C308.911 31.4275 309.298 31.3095 309.574 31.0735C309.85 30.8375 309.987 30.4942 309.987 30.0464V27.9466H305.741V28.6304H305.744ZM339.958 16.8682C339.958 16.4257 340.181 16.2032 340.623 16.2032H344.455C344.683 16.2032 344.86 16.2595 344.989 16.3694C345.118 16.4794 345.182 16.6296 345.182 16.8146V18.96C345.182 19.1692 345.12 19.3328 344.997 19.4481C344.874 19.5661 344.694 19.6224 344.455 19.6224H340.623C340.181 19.6224 339.958 19.3998 339.958 18.9573V16.8682ZM345.313 15.5756L345.206 16.2032C344.954 15.7848 344.53 15.5756 343.932 15.5756H340.62C340.178 15.5756 339.832 15.6936 339.585 15.9269C339.336 16.1603 339.212 16.474 339.212 16.8682V18.96C339.212 19.3542 339.336 19.668 339.585 19.9013C339.832 20.1346 340.178 20.2499 340.62 20.2499H343.932C344.506 20.2499 344.922 20.0542 345.179 19.668V20.8077C345.179 21.0169 345.12 21.1805 345 21.2958C344.879 21.4111 344.699 21.4701 344.461 21.4701H339.454V21.9099L339.615 22.0977H344.453C344.895 22.0977 345.252 21.9797 345.52 21.7463C345.788 21.513 345.922 21.1993 345.922 20.8051V15.5756H345.313ZM332.985 16.2032H336.818C337.26 16.2032 337.483 16.4257 337.483 16.8682V20.6629H338.228V16.8682C338.228 16.474 338.105 16.1603 337.861 15.9269C337.617 15.6936 337.268 15.5756 336.82 15.5756H333.519C332.902 15.5756 332.476 15.7848 332.237 16.2032L332.138 15.5756H331.519V20.6629H332.264V16.8119C332.264 16.6269 332.328 16.4794 332.457 16.3667C332.578 16.2568 332.758 16.2032 332.985 16.2032ZM330.255 13.6635H329.51V15.0178H330.255V13.6635ZM330.255 15.5756H329.51V20.6629H330.255V15.5756ZM328.255 13.6635H327.509V20.6629H328.255V13.6635ZM326.254 13.6635H325.509V15.0178H326.254V13.6635ZM326.254 15.5756H325.509V20.6629H326.254V15.5756ZM319.335 20.0354C318.855 20.0354 318.617 19.8128 318.617 19.3703V18.9225C318.617 18.48 318.855 18.2574 319.335 18.2574H323.597V19.3703C323.597 19.5795 323.535 19.7431 323.414 19.8584C323.291 19.9737 323.111 20.0327 322.87 20.0327H319.335V20.0354ZM317.874 18.9225V19.3703C317.874 19.7645 318.005 20.0783 318.268 20.3116C318.531 20.5449 318.887 20.6629 319.335 20.6629H322.35C322.972 20.6629 323.406 20.4377 323.65 19.9898L323.776 20.6629H324.342V16.8682C324.342 16.474 324.219 16.1603 323.969 15.9269C323.72 15.6936 323.377 15.5756 322.932 15.5756H318.365L318.204 15.7741V16.2058H322.942C323.379 16.2058 323.597 16.4284 323.597 16.8709V17.6701H319.335C318.887 17.6701 318.531 17.7827 318.268 18.0053C318.005 18.2279 317.874 18.5336 317.874 18.9225ZM317.117 16.2032V15.5756H313.006V14.3822H312.261V19.373C312.261 19.7672 312.384 20.081 312.634 20.3143C312.883 20.5476 313.226 20.6656 313.671 20.6656H316.957L317.117 20.4779V20.0381H313.671C313.229 20.0381 313.006 19.8155 313.006 19.373V16.2032H317.117ZM309.831 16.2032C310.317 16.2032 310.558 16.4257 310.558 16.8682V17.2437C310.558 17.4529 310.504 17.6057 310.397 17.7023C310.29 17.7988 310.102 17.8444 309.842 17.8444H305.497V16.8682C305.497 16.4257 305.741 16.2032 306.224 16.2032H309.831ZM304.752 16.8682V19.373C304.752 19.7672 304.886 20.081 305.154 20.3143C305.422 20.5476 305.779 20.6656 306.222 20.6656H311.041L311.212 20.4779V20.0381H306.224C305.739 20.0381 305.497 19.8155 305.497 19.373V18.4478H309.831C310.287 18.4478 310.644 18.3432 310.909 18.1394C311.172 17.9329 311.303 17.6352 311.303 17.2464V16.8709C311.303 16.4821 311.169 16.1683 310.898 15.9323C310.63 15.6963 310.274 15.5783 309.831 15.5783H306.224C305.782 15.5783 305.425 15.6963 305.157 15.9323C304.889 16.1656 304.752 16.4794 304.752 16.8682ZM302.805 19.2818C302.805 19.5393 302.743 19.7189 302.62 19.8235C302.497 19.9281 302.293 19.9791 302.006 19.9791H296.46V15.0634H302.006C302.287 15.0634 302.491 15.1171 302.617 15.2243C302.743 15.3316 302.805 15.5139 302.805 15.7714V19.2818ZM303.585 15.7714C303.585 15.3155 303.449 14.9722 303.172 14.7362C302.896 14.5002 302.507 14.3822 302.006 14.3822H295.672V20.6629H302.006C302.51 20.6629 302.896 20.5449 303.172 20.3089C303.449 20.0729 303.585 19.7297 303.585 19.2818V15.7714ZM288.675 16.2032C289.16 16.2032 289.402 16.4257 289.402 16.8682V17.2437C289.402 17.4529 289.348 17.6057 289.241 17.7023C289.133 17.7988 288.948 17.8444 288.686 17.8444H284.344V16.8682C284.344 16.4257 284.585 16.2032 285.071 16.2032H288.675ZM283.596 16.8682V19.373C283.596 19.7672 283.73 20.081 284 20.3143C284.269 20.5476 284.625 20.6656 285.068 20.6656H289.887L290.059 20.4779V20.0381H285.068C284.582 20.0381 284.341 19.8155 284.341 19.373V18.4478H288.675C289.131 18.4478 289.49 18.3432 289.753 18.1394C290.016 17.9329 290.147 17.6352 290.147 17.2464V16.8709C290.147 16.4821 290.013 16.1683 289.745 15.9323C289.477 15.6963 289.12 15.5783 288.677 15.5783H285.071C284.628 15.5783 284.271 15.6963 284.003 15.9323C283.732 16.1656 283.596 16.4794 283.596 16.8682ZM281.686 15.5756V19.4347C281.686 19.6197 281.622 19.7672 281.493 19.8745C281.364 19.9818 281.187 20.0354 280.959 20.0354H277.127C276.685 20.0354 276.462 19.8128 276.462 19.3703V15.5756H275.717V19.373C275.717 19.7672 275.84 20.081 276.089 20.3143C276.336 20.5476 276.682 20.6656 277.124 20.6656H280.436C281.034 20.6656 281.461 20.4564 281.71 20.0381L281.818 20.6656H282.429V15.5756H281.686ZM274.955 15.5756H271.375C270.758 15.5756 270.332 15.7848 270.09 16.2032L269.991 15.5756H269.372V20.6629H270.117V16.8119C270.117 16.6269 270.181 16.4794 270.31 16.3667C270.439 16.2568 270.619 16.2005 270.844 16.2005H274.952V15.5756H274.955ZM261.224 15.0634H264.885V20.6629H265.673V15.0634H269.326V14.3822H261.222V15.0634H261.224ZM293.687 95.7065H283.515V78.975H273.11V95.7065H255.687V104.693H293.69V95.7065H293.687ZM290.069 45.8821H330.601V64.5659C330.601 67.9503 329.77 70.3424 328.118 71.7208C326.466 73.0966 323.776 73.7912 320.078 73.7912H261.924C258.304 73.7912 255.673 73.0993 254.061 71.7208C252.447 70.3451 251.637 67.9557 251.637 64.5659V18.3298C251.637 14.8596 252.444 12.438 254.061 11.0569C255.678 9.67577 258.339 8.98656 262.042 8.98656H345.903V2.6013L343.656 0H262.042C255.421 0 250.296 1.55542 246.67 4.67162C243.045 7.78513 241.232 12.3388 241.232 18.3298V64.5659C241.232 70.4792 243.045 74.9926 246.67 78.1061C250.296 81.2196 255.421 82.7777 262.042 82.7777H325.19C331.811 82.7777 336.936 81.2196 340.561 78.1061C344.187 74.9926 346 70.4792 346 64.5659V36.8929H290.067V45.8821H290.069ZM214.388 64.5632C214.388 67.953 213.578 70.3397 211.963 71.7182C210.349 73.0966 207.643 73.7885 203.864 73.7885H139.054V8.98656H203.864C207.57 8.98656 210.25 9.69722 211.904 11.1159C213.559 12.5345 214.388 14.9401 214.388 18.3298V64.5632ZM224.675 18.3298C224.675 12.3388 222.862 7.78513 219.236 4.67162C215.61 1.55542 210.486 0 203.864 0H120.379V82.775H203.864C210.486 82.775 215.61 81.2169 219.236 78.1034C222.862 74.9899 224.675 70.4765 224.675 64.5632V18.3298ZM0 8.98656H48.2474V82.775H58.6527V8.98656H106.782V0H0V8.98656Z"
              fill="white"/>
    </g>
    <defs>
        <clipPath id="clip0_525_517">
            <rect width="346" height="108.638" fill="white"/>
        </clipPath>
    </defs>
</svg>
